<svg width="74" height="75" viewBox="0 0 74 75" fill="none" xmlns="http://www.w3.org/2000/svg">
<path d="M18.0562 6.73633C18.0562 6.73633 -8.08632 25.3402 4.16192 51.717C16.4102 78.0939 66.8491 75.0304 72.5931 49.3622C78.3429 23.6941 61.7052 14.978 43.2957 17.8072C24.8805 20.6306 18.0562 6.73633 18.0562 6.73633Z" fill="#6DC3CC"/>
<path d="M54.7842 20.3502C54.7328 20.3502 54.6813 20.3445 54.6299 20.3388L32.2024 16.2179C32.0309 16.1836 31.8709 16.1036 31.7508 15.9779C31.4365 15.6635 30.5735 14.4118 32.6653 11.4855C34.0885 9.49082 36.4318 9.15361 38.1407 8.90213C38.9009 8.79354 39.6153 8.69066 40.0097 8.47919C40.4384 8.25057 40.1983 7.23322 39.8897 6.1187C39.7182 5.49 39.5525 4.89559 39.5525 4.38692C39.5525 3.42672 40.084 2.38079 40.9413 1.64921C41.9472 0.797605 43.3018 0.460392 44.7593 0.700442C45.8852 0.889052 46.7482 1.46631 47.2512 2.37507C47.9999 3.71249 47.9256 5.78149 47.0569 7.91336C46.7425 8.68495 46.7597 8.94214 46.794 9.02787C46.9368 9.35365 48.0914 9.80517 49.4231 10.331C49.9832 10.5482 50.6233 10.7997 51.3435 11.0969C55.5329 12.8229 55.973 17.4296 55.6186 19.6243C55.5843 19.853 55.4529 20.053 55.2643 20.1902C55.1328 20.2988 54.9614 20.3502 54.7842 20.3502ZM33.0368 14.629L54.0069 18.4813C54.0354 16.9667 53.6983 13.9203 50.7091 12.6915C49.9946 12.4 49.3659 12.1485 48.8173 11.937C46.714 11.114 45.6566 10.7025 45.2336 9.71373C44.8964 8.93071 45.1536 8.07911 45.4851 7.27323C46.1367 5.6729 46.251 4.07828 45.7709 3.22096C45.5194 2.76944 45.1022 2.50653 44.4906 2.40365C43.2732 2.19789 42.4959 2.59798 42.0616 2.96948C41.5243 3.42672 41.2786 4.02684 41.2786 4.39835C41.2786 4.6784 41.4214 5.18137 41.5529 5.6729C41.9301 7.04461 42.5073 9.1136 40.8213 10.0052C40.164 10.3539 39.3067 10.4796 38.3979 10.6111C36.8376 10.8397 35.0715 11.0912 34.0713 12.4914C33.2426 13.6288 33.0654 14.3032 33.0368 14.629Z" fill="#231F20"/>
<path d="M52.7892 62.6958C52.7435 62.6958 52.6921 62.69 52.6406 62.6843L18.565 56.786C18.3421 56.746 18.1421 56.6202 18.0106 56.4316C17.8792 56.243 17.8277 56.0144 17.8677 55.7915L25.7608 11.8224C25.8408 11.3652 26.2752 11.0508 26.7324 11.1251L32.9051 12.0396C33.3738 12.1082 33.6996 12.5426 33.6253 13.0112C33.5567 13.4799 33.1166 13.8057 32.6536 13.7314L27.2983 12.9369L19.7024 55.2371L52.0862 60.8382L59.6364 18.4295L54.9039 17.4522C54.441 17.355 54.1438 16.9035 54.241 16.4405C54.3381 15.9776 54.7896 15.6804 55.2526 15.7775L60.7966 16.9263C61.2481 17.0235 61.5453 17.4579 61.4653 17.9151L53.6237 61.9813C53.5608 62.3986 53.195 62.6958 52.7892 62.6958Z" fill="#231F20"/>
<path d="M56.7382 70.9378C56.6925 70.9378 56.641 70.9321 56.5896 70.9263L12.3748 63.2848C11.9118 63.2047 11.5975 62.7647 11.6775 62.3017L21.268 4.44407C21.2852 4.34691 21.3138 4.25546 21.3595 4.17544C21.6853 3.58103 22.6969 2.62084 24.463 2.83802C26.1147 3.03807 40.1462 5.49 40.7463 5.59288C41.215 5.67289 41.5236 6.1187 41.4436 6.58737C41.3636 7.05604 40.9121 7.37039 40.4491 7.28465C40.3063 7.26179 25.8633 4.73556 24.2572 4.54123C23.4685 4.44407 23.0741 4.75842 22.9255 4.92417L13.5064 61.7473L56.0466 69.1031C59.6702 49.379 66.3002 13.2287 66.4316 12.2743C66.3459 12.0571 65.4943 11.5827 64.6941 11.3426L46.6104 8.3363C46.1417 8.25628 45.8274 7.81619 45.9074 7.34753C45.9874 6.87886 46.4275 6.57022 46.8962 6.64452L65.0314 9.65657C65.0656 9.66229 65.0942 9.668 65.1285 9.67943C65.6715 9.83375 68.3749 10.7082 68.1406 12.4972C67.992 13.6574 58.0185 67.9372 57.5898 70.2462C57.5041 70.6463 57.144 70.9378 56.7382 70.9378Z" fill="#231F20"/>
<path d="M52.2119 74.6413C51.2917 74.6413 50.583 74.5098 50.4001 74.4755C49.0855 74.3098 13.1639 69.8803 10.832 69.6345C9.5917 69.5031 8.72866 69.1144 8.25999 68.4743C7.9285 68.0228 7.87133 67.5313 7.92276 67.1998L15.4158 8.51337C15.4729 8.08472 15.833 7.76465 16.2674 7.76465H21.1141C21.5884 7.76465 21.9714 8.14758 21.9714 8.62197C21.9714 9.09635 21.5884 9.47929 21.1141 9.47929H17.0218L9.62028 67.4284C9.64885 67.5141 9.95176 67.817 11.0034 67.9256C13.381 68.1714 49.1199 72.5837 50.6402 72.7723C50.6687 72.7723 50.6916 72.7781 50.7202 72.7838C50.7316 72.7838 51.8461 73.0181 53.0921 72.8695L53.9551 69.5259C54.0751 69.0687 54.5438 68.7944 55.001 68.9087C55.4583 69.0287 55.7326 69.4974 55.6183 69.9546L54.6124 73.8354C54.5324 74.1498 54.2809 74.3898 53.9608 74.4584C53.3493 74.5956 52.7435 74.6413 52.2119 74.6413ZM9.60883 67.497V67.5027C9.60883 67.5027 9.60883 67.5027 9.60883 67.497Z" fill="#231F20"/>
<path d="M49.4917 50.802C49.4345 50.802 49.3831 50.7963 49.3259 50.7849L30.8421 47.1898C30.3792 47.0984 30.0762 46.6469 30.162 46.1839C30.2534 45.721 30.7049 45.418 31.1679 45.5038L49.6517 49.0988C50.1146 49.1902 50.4176 49.6418 50.3318 50.1047C50.2518 50.5162 49.8917 50.802 49.4917 50.802Z" fill="#231F20"/>
<path d="M50.7256 44.0979C50.6684 44.0979 50.617 44.0922 50.5598 44.0807L32.076 40.4857C31.613 40.3943 31.3101 39.9428 31.3959 39.4798C31.4873 39.0169 31.9388 38.7139 32.4018 38.7997L50.8856 42.3947C51.3486 42.4861 51.6515 42.9377 51.5657 43.4006C51.4857 43.8178 51.1256 44.0979 50.7256 44.0979Z" fill="#231F20"/>
<path d="M52.1201 36.3303C52.0629 36.3303 52.0115 36.3246 51.9544 36.3132L33.4705 32.7181C33.0076 32.6267 32.7047 32.1752 32.7904 31.7122C32.8818 31.2493 33.3391 30.9464 33.7963 31.0321L52.2801 34.6271C52.7431 34.7186 53.046 35.1701 52.9603 35.633C52.8803 36.0503 52.5202 36.3303 52.1201 36.3303Z" fill="#231F20"/>
<path d="M53.7094 29.5803C53.6523 29.5803 53.6008 29.5746 53.5437 29.5632L35.0599 25.9681C34.5969 25.8767 34.294 25.4252 34.3797 24.9622C34.4712 24.4993 34.9227 24.1964 35.3857 24.2821L53.8695 27.8771C54.3324 27.9686 54.6353 28.4201 54.5496 28.883C54.4696 29.2945 54.1095 29.5803 53.7094 29.5803Z" fill="#231F20"/>
<path d="M27.3095 46.8532C27.0351 46.8532 26.7779 46.7217 26.6122 46.4988L25.3148 44.6984C25.0347 44.3155 25.1262 43.7782 25.5091 43.5039C25.892 43.2238 26.4293 43.3153 26.7036 43.6982L27.2809 44.4984L28.7955 42.2293C29.0584 41.835 29.59 41.7264 29.9843 41.9893C30.3787 42.2522 30.4873 42.7837 30.2244 43.1781L28.0239 46.4759C27.8696 46.7103 27.6067 46.8532 27.3266 46.8589C27.3152 46.8532 27.3152 46.8532 27.3095 46.8532Z" fill="#231F20"/>
<path d="M28.2357 40.2174C27.9614 40.2174 27.7042 40.086 27.5384 39.8631L26.241 38.0627C25.961 37.6798 26.0524 37.1425 26.4353 36.8682C26.8183 36.5881 27.3556 36.6738 27.6299 37.0625L28.2072 37.8626L29.7217 35.5936C29.9847 35.1992 30.5162 35.0906 30.9106 35.3536C31.3049 35.6165 31.4135 36.148 31.1506 36.5424L28.9502 39.8402C28.7958 40.0745 28.5329 40.2174 28.2529 40.2231C28.2471 40.2174 28.2414 40.2174 28.2357 40.2174Z" fill="#231F20"/>
<path d="M29.7675 32.4214C29.4931 32.4214 29.2359 32.2899 29.0702 32.067L27.7728 30.2666C27.4927 29.8837 27.5841 29.3465 27.9671 29.0721C28.35 28.7921 28.8873 28.8835 29.1616 29.2664L29.7389 30.0609L31.2535 27.7918C31.5164 27.3975 32.0479 27.2889 32.4423 27.5518C32.8367 27.8147 32.9453 28.3462 32.6823 28.7406L30.4819 32.0384C30.3276 32.2728 30.0647 32.4157 29.7846 32.4214C29.7789 32.4214 29.7732 32.4214 29.7675 32.4214Z" fill="#231F20"/>
<path d="M31.0077 25.5631C30.7334 25.5631 30.4762 25.4317 30.3104 25.2088L29.013 23.4084C28.7329 23.0255 28.8244 22.4882 29.2073 22.2139C29.5903 21.9338 30.1275 22.0252 30.4019 22.4082L30.9791 23.2084L32.4937 20.9393C32.7566 20.5449 33.2882 20.4363 33.6825 20.6993C34.0769 20.9622 34.1855 21.4937 33.9226 21.8881L31.7221 25.1859C31.5678 25.4202 31.3049 25.5631 31.0249 25.5688C31.0191 25.5631 31.0134 25.5631 31.0077 25.5631Z" fill="#231F20"/>
<path d="M50.5372 74.2019C50.4172 74.2019 50.2972 74.1619 50.1943 74.0876C49.9428 73.899 49.8914 73.5389 50.08 73.2874L52.9777 69.4409C53.1664 69.1894 53.5264 69.138 53.7779 69.3266C54.0294 69.5152 54.0808 69.8753 53.8922 70.1268L50.9945 73.9733C50.8859 74.1219 50.7144 74.2019 50.5372 74.2019Z" fill="#231F20"/>
<path d="M47.6798 73.6579C47.5598 73.6579 47.4398 73.6179 47.3369 73.5436C47.0854 73.355 47.034 72.9949 47.2226 72.7435L50.1203 68.897C50.3089 68.6455 50.669 68.594 50.9205 68.7826C51.172 68.9713 51.2234 69.3313 51.0348 69.5828L48.1371 73.4293C48.0228 73.5779 47.8513 73.6579 47.6798 73.6579Z" fill="#231F20"/>
<path d="M44.3703 73.4356C44.2446 73.4356 44.1188 73.3956 44.0102 73.3099C43.7645 73.1098 43.7245 72.7497 43.9245 72.504L47.4281 68.1831C47.6281 67.9373 47.9882 67.8973 48.234 68.0974C48.4797 68.2974 48.5197 68.6575 48.3197 68.9032L44.8161 73.2241C44.7018 73.367 44.536 73.4356 44.3703 73.4356Z" fill="#231F20"/>
<path d="M41.4782 73.0813C41.3467 73.0813 41.221 73.0356 41.1124 72.9498C40.8724 72.7498 40.8381 72.3897 41.0381 72.1439L44.736 67.7145C44.9361 67.4744 45.3018 67.4401 45.5419 67.6402C45.7819 67.8402 45.8162 68.2003 45.6162 68.446L41.9183 72.8755C41.804 73.0127 41.644 73.0813 41.4782 73.0813Z" fill="#231F20"/>
<path d="M38.6436 72.7321C38.5064 72.7321 38.3692 72.6863 38.2606 72.5835C38.0263 72.372 38.0091 72.0119 38.2206 71.7776L42.29 67.2738C42.5015 67.0395 42.8616 67.0223 43.0959 67.2338C43.3303 67.4453 43.3474 67.8053 43.1359 68.0397L39.0665 72.5435C38.9579 72.6692 38.7979 72.7321 38.6436 72.7321Z" fill="#231F20"/>
<path d="M35.3513 72.2751C35.2027 72.2751 35.0598 72.218 34.9455 72.1094C34.7226 71.8865 34.7226 71.5264 34.9455 71.3035L39.2664 66.9826C39.4893 66.7597 39.8493 66.7597 40.0723 66.9826C40.2952 67.2055 40.2952 67.5656 40.0723 67.7885L35.7514 72.1094C35.6428 72.218 35.4999 72.2751 35.3513 72.2751Z" fill="#231F20"/>
<path d="M31.7791 71.732C31.6476 71.732 31.5161 71.6862 31.4075 71.5948C31.1675 71.389 31.1446 71.029 31.3504 70.7889L35.4084 66.0965C35.6141 65.8565 35.9742 65.8336 36.2142 66.0394C36.4543 66.2451 36.4772 66.6052 36.2714 66.8452L32.2134 71.5376C32.0991 71.6634 31.9391 71.732 31.7791 71.732Z" fill="#231F20"/>
<path d="M28.1554 71.2803C28.024 71.2803 27.8982 71.2346 27.7896 71.1488C27.5496 70.9488 27.5153 70.583 27.721 70.3429L31.8019 65.4791C32.0019 65.239 32.362 65.2047 32.6078 65.4105C32.8478 65.6105 32.8821 65.9763 32.6763 66.2164L28.5955 71.0802C28.4812 71.2117 28.3212 71.2803 28.1554 71.2803Z" fill="#231F20"/>
<path d="M24.8576 70.8695C24.7318 70.8695 24.6004 70.8238 24.4918 70.738C24.2518 70.538 24.2175 70.1779 24.4175 69.9321L28.5726 64.9254C28.7727 64.6853 29.1328 64.6511 29.3785 64.8511C29.6186 65.0511 29.6529 65.4112 29.4528 65.657L25.2977 70.6637C25.1834 70.7952 25.0233 70.8695 24.8576 70.8695Z" fill="#231F20"/>
<path d="M20.9596 70.4807C20.8339 70.4807 20.7024 70.435 20.5939 70.3493C20.3538 70.1493 20.3195 69.7892 20.5195 69.5434L24.8919 64.2852C25.0919 64.0451 25.452 64.0051 25.6978 64.2109C25.9378 64.4109 25.9721 64.771 25.7721 65.0168L21.3997 70.275C21.2854 70.4122 21.1254 70.4807 20.9596 70.4807Z" fill="#231F20"/>
<path d="M18.0619 69.8521C17.9248 69.8521 17.7933 69.8064 17.6847 69.7092C17.4504 69.4978 17.4275 69.1377 17.639 68.9034L22.1656 63.7994C22.3771 63.5594 22.7372 63.5423 22.9715 63.7537C23.2058 63.9652 23.2287 64.3253 23.0172 64.5596L18.4906 69.6635C18.3763 69.7893 18.222 69.8521 18.0619 69.8521Z" fill="#231F20"/>
<path d="M14.844 69.8173C14.7068 69.8173 14.5753 69.7716 14.461 69.6744C14.2267 69.4629 14.2039 69.1029 14.4153 68.8685L19.3592 63.3131C19.5707 63.0788 19.9308 63.0559 20.1651 63.2674C20.3994 63.4788 20.4223 63.8389 20.2108 64.0733L15.2669 69.6287C15.1583 69.7544 15.004 69.8173 14.844 69.8173Z" fill="#231F20"/>
<path d="M11.4206 69.3832C11.2835 69.3832 11.152 69.3375 11.0377 69.2403C10.8034 69.0288 10.7805 68.6687 10.992 68.4344L16.0673 62.7418C16.2788 62.5075 16.6389 62.4846 16.8732 62.6961C17.1075 62.9076 17.1304 63.2676 16.9189 63.502L11.8436 69.1946C11.7293 69.3203 11.575 69.3832 11.4206 69.3832Z" fill="#231F20"/>
<path d="M8.88281 67.0398C8.74564 67.0398 8.60848 66.994 8.49988 66.8912C8.26555 66.6797 8.2484 66.3196 8.45987 66.0853L12.0949 62.0502C12.3064 61.8158 12.6665 61.7987 12.9008 62.0102C13.1351 62.2216 13.1523 62.5817 12.9408 62.816L9.30578 66.8512C9.19147 66.9769 9.03713 67.0398 8.88281 67.0398Z" fill="#231F20"/>
<path d="M9.35742 63.308C9.2031 63.308 9.04307 63.2451 8.93448 63.1194C8.72301 62.885 8.74016 62.525 8.97449 62.3135L12.1351 59.4672C12.3695 59.2557 12.7296 59.2729 12.941 59.5072C13.1525 59.7415 13.1353 60.1016 12.901 60.3131L9.74034 63.1594C9.63175 63.2566 9.49459 63.308 9.35742 63.308Z" fill="#231F20"/>
<path d="M9.91178 58.958C9.74032 58.958 9.56883 58.878 9.45452 58.7294C9.26591 58.4779 9.31735 58.1178 9.56883 57.9292L13.021 55.3344C13.2725 55.1458 13.6325 55.1972 13.8211 55.4487C14.0097 55.7002 13.9583 56.0603 13.7068 56.2489L10.2547 58.8437C10.1518 58.9237 10.0318 58.958 9.91178 58.958Z" fill="#231F20"/>
<path d="M10.7006 54.4148C10.5291 54.4148 10.3576 54.3405 10.249 54.1918C10.0547 53.9404 10.1061 53.5803 10.3519 53.3917L13.6097 50.894C13.8612 50.6997 14.2213 50.7511 14.4099 50.9969C14.6042 51.2484 14.5528 51.6085 14.307 51.7971L11.0492 54.2947C10.9406 54.3747 10.8206 54.4148 10.7006 54.4148Z" fill="#231F20"/>
<path d="M10.992 50.5167C10.8205 50.5167 10.649 50.4367 10.5347 50.2938C10.3461 50.0424 10.3919 49.6823 10.6433 49.4937L14.5184 46.5445C14.7699 46.3559 15.13 46.4016 15.3186 46.6531C15.5072 46.9046 15.4615 47.2646 15.21 47.4533L11.3349 50.4024C11.232 50.4767 11.112 50.5167 10.992 50.5167Z" fill="#231F20"/>
<path d="M11.4032 47.2815C11.2317 47.2815 11.0602 47.2072 10.9516 47.0586C10.7573 46.8071 10.8088 46.4471 11.0545 46.2585L15.3182 42.9778C15.5697 42.7835 15.9241 42.8292 16.1184 43.0807C16.3127 43.3321 16.2613 43.6922 16.0155 43.8808L11.7518 47.1615C11.6489 47.2415 11.5232 47.2815 11.4032 47.2815Z" fill="#231F20"/>
<path d="M12.0033 42.5609C11.8318 42.5609 11.6661 42.4866 11.5517 42.3437C11.3574 42.098 11.3974 41.7379 11.6489 41.5378L15.8098 38.2514C16.0613 38.0571 16.4156 38.0971 16.6156 38.3486C16.81 38.5944 16.77 38.9545 16.5185 39.1545L12.3576 42.4409C12.2547 42.5209 12.129 42.5609 12.0033 42.5609Z" fill="#231F20"/>
<path d="M12.5521 38.2796C12.3749 38.2796 12.1977 38.1939 12.0834 38.0339C11.9005 37.7767 11.9634 37.4166 12.2206 37.2394L16.8215 34.0102C17.0787 33.8273 17.4388 33.8901 17.616 34.1473C17.7932 34.4045 17.736 34.7646 17.4788 34.9418L12.8779 38.171C12.7807 38.2453 12.6664 38.2796 12.5521 38.2796Z" fill="#231F20"/>
<path d="M12.9293 34.9756C12.7693 34.9756 12.6093 34.907 12.4949 34.7756C12.2892 34.5355 12.3178 34.1755 12.5521 33.9697L17.2388 29.9231C17.4789 29.7174 17.8389 29.7403 18.0447 29.9803C18.2504 30.2204 18.2219 30.5804 17.9875 30.7862L13.3008 34.8327C13.1922 34.9299 13.0608 34.9756 12.9293 34.9756Z" fill="#231F20"/>
<path d="M13.5351 30.5695C13.3579 30.5695 13.1864 30.4895 13.0721 30.3352C12.8835 30.0837 12.9407 29.7236 13.1921 29.535L18.1589 25.8714C18.4104 25.6828 18.7704 25.74 18.959 25.9914C19.1476 26.2429 19.0905 26.603 18.839 26.7916L13.8723 30.4552C13.7751 30.5352 13.6551 30.5695 13.5351 30.5695Z" fill="#231F20"/>
<path d="M14.004 26.8889C13.844 26.8889 13.6839 26.8203 13.5696 26.6888C13.3639 26.4488 13.3867 26.0887 13.6268 25.883L18.8793 21.3392C19.1194 21.1334 19.4794 21.1563 19.6852 21.3963C19.8909 21.6364 19.8681 21.9964 19.628 22.2022L14.3755 26.746C14.2726 26.8432 14.1412 26.8889 14.004 26.8889Z" fill="#231F20"/>
<path d="M14.4215 23.6308C14.2614 23.6308 14.1014 23.5622 13.9871 23.4308C13.7814 23.1907 13.8099 22.8307 14.05 22.6249L19.4339 18.0525C19.674 17.8468 20.0341 17.8754 20.2398 18.1154C20.4456 18.3555 20.417 18.7155 20.1769 18.9213L14.793 23.4937C14.6844 23.5851 14.5529 23.6308 14.4215 23.6308Z" fill="#231F20"/>
<path d="M14.8498 20.2591C14.7069 20.2591 14.5641 20.2077 14.4498 20.0933C14.2212 19.8704 14.2212 19.5104 14.4383 19.2875L19.548 14.0692C19.7709 13.8463 20.1309 13.8406 20.3538 14.0578C20.5824 14.2807 20.5825 14.6408 20.3653 14.8637L15.2556 20.0819C15.1471 20.2019 14.9984 20.2591 14.8498 20.2591Z" fill="#231F20"/>
<path d="M15.2443 17.2007C15.0957 17.2007 14.9529 17.1436 14.8386 17.035C14.6157 16.8121 14.6157 16.452 14.8386 16.2291L20.674 10.3879C20.8969 10.165 21.257 10.165 21.4799 10.3879C21.7028 10.6108 21.7028 10.9709 21.4799 11.1938L15.6444 17.035C15.5358 17.1436 15.3872 17.2007 15.2443 17.2007Z" fill="#231F20"/>
<path d="M15.6789 13.7949C15.5188 13.7949 15.3531 13.7263 15.2445 13.5948C15.0387 13.3548 15.073 12.9947 15.3131 12.7889L20.7485 8.1937C20.9885 7.98794 21.3486 8.02223 21.5544 8.26228C21.7601 8.50233 21.7258 8.86241 21.4858 9.06816L16.0504 13.6634C15.9418 13.7491 15.8103 13.7949 15.6789 13.7949Z" fill="#231F20"/>
</svg>
