<svg width="76" height="69" viewBox="0 0 76 69" fill="none" xmlns="http://www.w3.org/2000/svg">
<path d="M18.3667 0.231445C18.3667 0.231445 -8.55083 19.3868 4.06051 46.5456C16.6719 73.7044 68.6061 70.5501 74.5204 44.121C80.4348 17.6919 63.3156 8.71747 44.3603 11.6305C25.4051 14.5435 18.3667 0.231445 18.3667 0.231445Z" fill="#C7D166"/>
<path d="M33.5207 64.7532C33.3676 64.7532 33.2382 64.7532 33.1205 64.7473C28.695 64.6591 27.9123 58.8036 27.877 58.5505L20.309 13.5134C20.2973 13.4428 20.1737 12.7778 20.0089 11.8362C19.7853 10.5474 19.4734 8.68188 19.2615 7.09296C18.879 4.25644 22.0098 2.9441 23.9224 2.61455C23.9577 2.60866 23.993 2.60278 24.0342 2.60278C24.2637 2.58512 46.6499 1.55527 50.016 1.33752C54.1825 1.09036 55.2065 6.36323 55.2477 6.58686C55.3301 7.06942 63.21 53.5248 63.9397 57.9326C64.2163 59.5804 63.9397 60.9339 63.1217 61.9579C61.88 63.5056 59.8615 63.6351 59.7791 63.6351C58.8728 63.6822 38.1874 64.7532 33.5207 64.7532ZM24.1813 4.35648C23.7753 4.43887 20.7798 5.1274 21.0152 6.85168C21.2271 8.41118 21.5331 10.259 21.7508 11.5302C21.9215 12.5188 22.0451 13.1956 22.0451 13.1956C22.0451 13.2015 22.0451 13.2074 22.0451 13.2074L29.619 58.2975C29.6307 58.3799 30.2486 62.9289 33.1499 62.9819C36.7868 63.0525 59.4495 61.8814 59.679 61.8696C59.6849 61.8696 61.009 61.7696 61.7505 60.8398C62.239 60.2277 62.3861 59.345 62.1978 58.2151C61.4622 53.8073 53.5882 7.35778 53.5058 6.89287C53.5058 6.86933 52.7407 2.93822 50.1337 3.09711C46.8382 3.31485 25.529 4.29763 24.1813 4.35648Z" fill="#231F20"/>
<path d="M21.4741 12.3838C21.0092 12.3838 20.6208 12.019 20.5914 11.5482C20.5679 11.0597 20.9386 10.6478 21.4271 10.6184L54.8298 8.78817C55.3182 8.76463 55.7301 9.13538 55.7596 9.62383C55.7831 10.1123 55.4124 10.5242 54.9239 10.5536L21.5212 12.3838C21.5094 12.3838 21.4918 12.3838 21.4741 12.3838Z" fill="#231F20"/>
<path d="M28.648 56.1202C28.183 56.1202 27.7946 55.7553 27.7652 55.2845C27.7417 54.7961 28.1124 54.3841 28.6009 54.3547L62.0036 52.5245C62.492 52.501 62.904 52.8717 62.9334 53.3602C62.9569 53.8486 62.5862 54.2605 62.0977 54.29L28.695 56.1202C28.6833 56.1202 28.6656 56.1202 28.648 56.1202Z" fill="#231F20"/>
<path d="M28.6478 68.9488C28.5595 68.9488 28.483 68.9488 28.4124 68.9488C25.2639 68.9135 24.087 65.5238 23.9045 63.7348L22.1273 52.9831L18.4904 30.6205C18.3786 30.0026 15.6304 15.002 15.2596 12.7186C14.8712 10.3176 15.5244 9.36422 15.8246 9.06409L19.4555 4.93878C19.7792 4.57391 20.3383 4.5386 20.7031 4.86227C21.068 5.18594 21.1033 5.74501 20.7796 6.10987L17.1251 10.2587C17.1134 10.2705 17.1075 10.2823 17.0957 10.2882C17.0486 10.3588 16.7544 10.9061 17.0015 12.4361C17.3664 14.7018 20.2029 30.1615 20.2323 30.3204L23.8751 52.6948L25.6582 63.4994C25.67 63.5877 26.0761 67.154 28.4359 67.1775C31.5902 67.2128 53.0583 66.3713 53.2761 66.3595C53.329 66.3536 53.382 66.3595 53.435 66.3654C54.1882 66.4713 56.3421 66.5537 57.2719 65.671C58.6725 64.3469 61.2383 61.3514 61.2678 61.3161C61.5856 60.9454 62.1446 60.9042 62.5154 61.222C62.8861 61.5398 62.9273 62.0988 62.6095 62.4696C62.5036 62.5932 59.9554 65.565 58.4901 66.9539C56.8717 68.4898 53.8999 68.2074 53.2702 68.125C51.6695 68.1956 32.4318 68.9488 28.6478 68.9488Z" fill="#231F20"/>
<path d="M31.9787 55.6841C31.6138 55.6841 31.2725 55.4605 31.1489 55.0957C31.0842 54.9132 30.5663 53.2125 31.5432 49.811C32.6378 45.9976 35.9274 43.0022 36.9102 42.1724C38.4462 40.8777 41.5299 40.4364 43.8485 40.2951C45.7964 40.1715 50.0041 41.4839 51.8638 43.7319C53.3997 45.5857 54.5061 46.9274 55.2711 48.4222C56.1597 50.1523 56.7894 52.7123 56.9071 53.2066C57.0189 53.6833 56.7247 54.1541 56.248 54.2659C55.7713 54.3777 55.2946 54.0834 55.1887 53.6068C54.8886 52.3356 54.3178 50.423 53.7057 49.2225C53.0584 47.9573 52.1168 46.7979 50.5043 44.85C49.1155 43.167 45.561 41.9606 43.9603 42.0488C41.1415 42.2195 38.9346 42.7668 38.0519 43.5142C37.4222 44.0438 34.2267 46.8686 33.2439 50.2877C32.4259 53.1419 32.8261 54.5131 32.8261 54.5248C32.9673 54.9838 32.7143 55.4782 32.2553 55.6312C32.1611 55.6665 32.0728 55.6841 31.9787 55.6841Z" fill="#231F20"/>
<path d="M41.0236 42.0495C35.4742 42.0495 30.9604 37.5711 30.9604 32.0687C30.9604 26.5663 35.4742 22.0879 41.0236 22.0879C46.5731 22.0879 51.0868 26.5663 51.0868 32.0687C51.0868 37.5711 46.5731 42.0495 41.0236 42.0495ZM41.0236 23.8534C36.4452 23.8534 32.7259 27.5373 32.7259 32.0687C32.7259 36.6001 36.4511 40.284 41.0236 40.284C45.6021 40.284 49.3213 36.6001 49.3213 32.0687C49.3213 27.5373 45.6021 23.8534 41.0236 23.8534Z" fill="#231F20"/>
<path d="M58.6665 51.9299C58.384 51.9299 58.1369 51.7298 58.0898 51.4414L51.3045 12.5658C51.2515 12.248 51.4634 11.942 51.7812 11.8831C52.1048 11.8301 52.405 12.042 52.4638 12.3598L59.2491 51.2355C59.3021 51.5532 59.0902 51.8592 58.7724 51.9181C58.7312 51.924 58.6959 51.9299 58.6665 51.9299Z" fill="#231F20"/>
<path d="M46.832 61.287C45.2254 61.287 43.9131 60.1335 43.9131 58.7153C43.9131 57.297 45.2195 56.1436 46.832 56.1436C48.4386 56.1436 49.745 57.297 49.745 58.7153C49.745 60.1335 48.4386 61.287 46.832 61.287ZM46.832 57.3264C45.8728 57.3264 45.0901 57.9502 45.0901 58.7211C45.0901 59.4862 45.8728 60.1159 46.832 60.1159C47.7912 60.1159 48.568 59.4921 48.568 58.7211C48.568 57.9502 47.7912 57.3264 46.832 57.3264Z" fill="#231F20"/>
<path d="M54.9005 67.8959C54.8063 67.8959 54.7063 67.8723 54.618 67.8253C54.3355 67.6664 54.2296 67.3133 54.3826 67.0249L56.8072 62.5936C56.9602 62.3111 57.3192 62.2052 57.6075 62.3582C57.89 62.5171 57.9959 62.8702 57.8429 63.1585L55.4183 67.5899C55.3124 67.7841 55.1064 67.8959 54.9005 67.8959Z" fill="#231F20"/>
<path d="M52.3761 67.8727C52.2761 67.8727 52.1701 67.8491 52.076 67.7903C51.7935 67.6255 51.7052 67.2665 51.8641 66.9841L54.3828 62.6998C54.5476 62.4233 54.9066 62.3232 55.1891 62.488C55.4716 62.6528 55.5598 63.0117 55.4009 63.2942L52.8822 67.5784C52.7763 67.7667 52.5821 67.8727 52.3761 67.8727Z" fill="#231F20"/>
<path d="M49.751 67.9723C49.6451 67.9723 49.5333 67.9429 49.4392 67.884C49.1626 67.7134 49.0802 67.3485 49.2508 67.0719L51.9285 62.8054C52.0991 62.5288 52.464 62.4464 52.7406 62.617C53.0172 62.7877 53.0996 63.1526 52.9289 63.4292L50.2513 67.6957C50.1395 67.8781 49.9453 67.9723 49.751 67.9723Z" fill="#231F20"/>
<path d="M46.1848 68.1076C46.073 68.1076 45.9671 68.0781 45.867 68.0134C45.5963 67.8368 45.5139 67.472 45.6905 67.2013L48.4211 62.97C48.5976 62.6993 48.9625 62.6169 49.2332 62.7935C49.5039 62.97 49.5863 63.3349 49.4097 63.6056L46.6791 67.8368C46.5673 68.0134 46.379 68.1076 46.1848 68.1076Z" fill="#231F20"/>
<path d="M43.9484 68.1904C43.8484 68.1904 43.7542 68.1669 43.66 68.1139C43.3776 67.955 43.2716 67.596 43.4305 67.3135L45.7668 63.1235C45.9257 62.8351 46.2847 62.741 46.5672 62.894C46.8497 63.0529 46.9556 63.4118 46.7967 63.6943L44.4604 67.8844C44.3545 68.0845 44.1544 68.1904 43.9484 68.1904Z" fill="#231F20"/>
<path d="M40.688 68.3076C40.5879 68.3076 40.482 68.2841 40.3879 68.2252C40.1113 68.0604 40.0171 67.6956 40.1819 67.419L42.6535 63.2525C42.8183 62.97 43.1832 62.8817 43.4598 63.0465C43.7423 63.2113 43.8305 63.5761 43.6658 63.8527L41.1941 68.0192C41.0882 68.2076 40.894 68.3076 40.688 68.3076Z" fill="#231F20"/>
<path d="M37.822 68.408C37.722 68.408 37.6219 68.3844 37.5278 68.3315C37.2453 68.1726 37.1453 67.8077 37.31 67.5311L39.6875 63.3881C39.8464 63.1057 40.2113 63.0056 40.4879 63.1704C40.7704 63.3293 40.8704 63.6942 40.7056 63.9707L38.3281 68.1137C38.2222 68.302 38.0221 68.408 37.822 68.408Z" fill="#231F20"/>
<path d="M35.0447 68.4964C34.9387 68.4964 34.8387 68.467 34.7445 68.414C34.468 68.2433 34.3738 67.8843 34.5445 67.6078L36.9749 63.5707C37.1456 63.2941 37.5046 63.2 37.7812 63.3706C38.0577 63.5413 38.1519 63.9003 37.9812 64.1769L35.5508 68.2139C35.439 68.3963 35.2448 68.4964 35.0447 68.4964Z" fill="#231F20"/>
<path d="M31.484 68.6017C31.378 68.6017 31.2721 68.5722 31.1721 68.5134C30.8955 68.3427 30.8131 67.9779 30.9837 67.7013L33.5554 63.5583C33.7261 63.2817 34.091 63.1993 34.3676 63.37C34.6442 63.5406 34.7265 63.9055 34.5559 64.1821L31.9842 68.3251C31.8724 68.5016 31.6782 68.6017 31.484 68.6017Z" fill="#231F20"/>
<path d="M28.4184 68.6553C28.3125 68.6553 28.2007 68.6258 28.1065 68.5611C27.8299 68.3904 27.7475 68.0256 27.9241 67.749L30.896 63.0469C31.0666 62.7703 31.4315 62.688 31.7081 62.8645C31.9847 63.0352 32.0671 63.4 31.8905 63.6766L28.9186 68.3787C28.8068 68.5552 28.6185 68.6553 28.4184 68.6553Z" fill="#231F20"/>
<path d="M25.8467 67.2076C25.7231 67.2076 25.5936 67.1664 25.4877 67.084C25.2287 66.8839 25.1817 66.5132 25.3817 66.2601L29.307 61.1873C29.5071 60.9284 29.8778 60.8872 30.1309 61.0814C30.3898 61.2815 30.4369 61.6522 30.2368 61.9053L26.3116 66.9781C26.1939 67.1311 26.0232 67.2076 25.8467 67.2076Z" fill="#231F20"/>
<path d="M24.7809 64.2352C24.6573 64.2352 24.5338 64.194 24.422 64.1116C24.163 63.9116 24.1159 63.5467 24.3101 63.2878L28.2824 58.0914C28.4825 57.8325 28.8474 57.7854 29.1063 57.9796C29.3653 58.1797 29.4124 58.5445 29.2181 58.8035L25.2458 63.9998C25.134 64.1528 24.9575 64.2352 24.7809 64.2352Z" fill="#231F20"/>
<path d="M23.9693 59.3103C23.8281 59.3103 23.6809 59.2573 23.5691 59.1514C23.3337 58.9277 23.3161 58.557 23.5397 58.3216L27.6356 53.9256C27.8592 53.6902 28.23 53.6725 28.4654 53.8962C28.7008 54.1198 28.7184 54.4905 28.4948 54.7259L24.3989 59.1219C24.2812 59.2455 24.1282 59.3103 23.9693 59.3103Z" fill="#231F20"/>
<path d="M23.3926 55.8255C23.2514 55.8255 23.1043 55.7725 22.9925 55.6666C22.7571 55.443 22.7394 55.0722 22.963 54.8368L27.0472 50.4467C27.2708 50.2113 27.6415 50.1995 27.8769 50.4173C28.1123 50.6409 28.13 51.0117 27.9064 51.2471L23.8222 55.6372C23.7104 55.7608 23.5515 55.8255 23.3926 55.8255Z" fill="#231F20"/>
<path d="M22.8391 52.4597C22.692 52.4597 22.5448 52.4067 22.433 52.2949C22.1976 52.0713 22.1917 51.6947 22.4154 51.4652L26.5113 47.2104C26.7349 46.975 27.1115 46.9691 27.341 47.1927C27.5764 47.4163 27.5823 47.793 27.3587 48.0225L23.2628 52.2773C23.151 52.4009 22.998 52.4597 22.8391 52.4597Z" fill="#231F20"/>
<path d="M22.2096 48.5755C22.0684 48.5755 21.9272 48.5284 21.8153 48.4225C21.5741 48.2047 21.5505 47.834 21.7683 47.5927L25.8053 43.1025C26.023 42.8613 26.3938 42.8436 26.6351 43.0555C26.8764 43.2732 26.8999 43.6439 26.6822 43.8852L22.6451 48.3754C22.5333 48.5108 22.3685 48.5755 22.2096 48.5755Z" fill="#231F20"/>
<path d="M21.6155 44.9211C21.4624 44.9211 21.3094 44.8623 21.1917 44.7387C20.9681 44.5033 20.974 44.1325 21.2094 43.9089L25.0346 40.2191C25.27 39.9955 25.6407 40.0013 25.8644 40.2367C26.088 40.4721 26.0821 40.8429 25.8467 41.0665L22.0215 44.7563C21.9097 44.8682 21.7626 44.9211 21.6155 44.9211Z" fill="#231F20"/>
<path d="M21.0505 41.443C20.9092 41.443 20.768 41.3959 20.6562 41.2959C20.4149 41.0781 20.3913 40.7074 20.6091 40.4661L24.6049 35.9877C24.8227 35.7464 25.1934 35.7229 25.4347 35.9406C25.676 36.1584 25.6995 36.5291 25.4818 36.7704L21.4859 41.2488C21.3741 41.3783 21.2093 41.443 21.0505 41.443Z" fill="#231F20"/>
<path d="M20.5268 38.248C20.3973 38.248 20.2737 38.2068 20.1619 38.1244C19.9089 37.9244 19.8618 37.5536 20.0619 37.3006L23.9635 32.3514C24.1636 32.0983 24.5344 32.0512 24.7874 32.2513C25.0405 32.4514 25.0876 32.8222 24.8875 33.0752L20.9858 38.0244C20.874 38.1715 20.7033 38.248 20.5268 38.248Z" fill="#231F20"/>
<path d="M19.7262 33.322C19.5732 33.322 19.4202 33.2631 19.3084 33.1454C19.0789 32.9159 19.0848 32.5393 19.3143 32.3157L23.3513 28.3257C23.5808 28.0962 23.9575 28.0962 24.1811 28.3316C24.4106 28.5611 24.4047 28.9377 24.1752 29.1614L20.1381 33.1513C20.0263 33.2631 19.8733 33.322 19.7262 33.322Z" fill="#231F20"/>
<path d="M19.1318 29.8436C19.0024 29.8436 18.867 29.8024 18.7611 29.7083C18.508 29.5023 18.4727 29.1315 18.6787 28.8785L22.5921 24.0999C22.7981 23.8469 23.1689 23.8116 23.4219 24.0176C23.675 24.2235 23.7103 24.5943 23.5043 24.8473L19.5908 29.6259C19.4731 29.773 19.3025 29.8436 19.1318 29.8436Z" fill="#231F20"/>
<path d="M18.373 25.6663C18.2377 25.6663 18.1023 25.6192 17.9905 25.525C17.7433 25.3132 17.7139 24.9424 17.9258 24.6952L21.9216 20.0403C22.1335 19.7931 22.5042 19.7637 22.7514 19.9756C22.9985 20.1874 23.028 20.5582 22.8161 20.8053L18.8203 25.4603C18.7026 25.5956 18.5378 25.6663 18.373 25.6663Z" fill="#231F20"/>
<path d="M17.6192 21.5223C17.4838 21.5223 17.3426 21.4752 17.2308 21.3811C16.9836 21.1692 16.9601 20.7985 17.1719 20.5513L21.2207 15.8846C21.4326 15.6374 21.8033 15.6139 22.0505 15.8257C22.2977 16.0376 22.3212 16.4083 22.1094 16.6555L18.0605 21.3222C17.9487 21.4517 17.784 21.5223 17.6192 21.5223Z" fill="#231F20"/>
<path d="M16.9016 17.5566C16.7545 17.5566 16.6073 17.5037 16.4955 17.3919C16.2601 17.1682 16.2542 16.7916 16.4779 16.5621L20.6267 12.2485C20.8504 12.0131 21.227 12.0072 21.4565 12.2308C21.6919 12.4544 21.6978 12.8311 21.4742 13.0606L17.3253 17.3742C17.2076 17.4978 17.0546 17.5566 16.9016 17.5566Z" fill="#231F20"/>
<path d="M16.3249 14.3016C16.1719 14.3016 16.013 14.2427 15.9012 14.1191C15.6776 13.8837 15.6835 13.513 15.9189 13.2894L20.1442 9.24643C20.3796 9.0228 20.7504 9.02869 20.974 9.26408C21.1976 9.49948 21.1917 9.87023 20.9563 10.0939L16.731 14.1368C16.6133 14.2486 16.4662 14.3016 16.3249 14.3016Z" fill="#231F20"/>
</svg>
