<svg width="77" height="73" viewBox="0 0 77 73" fill="none" xmlns="http://www.w3.org/2000/svg">
<path d="M18.7196 0.724609C18.7196 0.724609 -8.62918 20.1869 4.18422 47.7808C16.9976 75.3748 69.764 72.17 75.7731 45.3174C81.7881 18.4649 64.3827 9.3466 45.1238 12.3063C25.8648 15.26 18.7196 0.724609 18.7196 0.724609Z" fill="#6ACCB2"/>
<path d="M28.4596 67.3144C28.3459 67.3144 28.2323 67.2904 28.1247 67.2486C27.766 67.1051 27.5388 66.7463 27.5627 66.3577C27.5687 66.262 28.1367 56.5518 22.6597 55.5294C21.2247 55.2603 19.7479 55.1288 18.3188 55.0032C14.9466 54.6983 11.7596 54.4172 10.1154 52.3425C9.15869 51.1406 8.84779 49.4964 9.15871 47.3259C10.2051 39.9835 16.1185 10.8887 16.3576 9.72278C16.4115 9.3162 16.8479 6.48804 18.8689 4.94541C19.9691 4.10234 21.3144 3.80338 22.857 4.04255C27.5925 4.77799 54.3016 10.3147 56.1252 10.6974C56.6454 10.7392 59.5573 11.0502 61.2255 13.119C62.224 14.3626 62.5708 15.9531 62.2539 17.8545C61.2972 23.6065 54.5826 55.7925 54.5168 56.1153C54.1521 58.4293 52.6812 62.2918 49.5422 61.8673C46.4031 61.4368 40.5375 59.7626 40.2924 59.6909C40.2445 59.6789 36.4956 58.5967 34.7616 60.5041C32.651 62.824 29.177 66.9436 29.1412 66.9855C28.9678 67.2008 28.7167 67.3144 28.4596 67.3144ZM21.8585 5.75858C21.1231 5.75858 20.4953 5.96187 19.9571 6.36845C18.4324 7.52244 18.1335 9.94999 18.1275 9.97391C18.1275 9.99782 18.1215 10.0277 18.1155 10.0516C18.0557 10.3506 11.9869 40.1748 10.9286 47.583C10.6894 49.2393 10.8807 50.4351 11.5145 51.2303C12.6745 52.6952 15.3591 52.9404 18.4683 53.2154C19.9392 53.347 21.4639 53.4845 22.9766 53.7655C28.0111 54.7042 29.1172 60.5639 29.3265 63.9959C30.5343 62.5788 32.2025 60.6476 33.4283 59.3022C35.9276 56.5518 40.5973 57.9151 40.7946 57.9749C40.8424 57.9868 46.7738 59.6789 49.7873 60.0915C51.9338 60.3964 52.747 55.8403 52.753 55.7925C52.8307 55.4277 59.5334 23.2716 60.4841 17.5615C60.7113 16.1923 60.4901 15.0742 59.8264 14.249C58.5468 12.6586 55.9818 12.4852 55.9579 12.4852C55.91 12.4852 55.8681 12.4792 55.8203 12.4672C55.5333 12.4074 27.3295 6.55979 22.576 5.81837C22.3309 5.78249 22.0917 5.75858 21.8585 5.75858Z" fill="#231F20"/>
<path d="M33.6734 72.1872C33.4462 72.1872 33.231 72.1035 33.0635 71.948L26.9409 66.2558C26.8213 66.1482 26.7376 66.0107 26.6897 65.8552C25.9065 63.2363 21.9124 61.4844 21.458 61.2931C20.9736 61.1615 17.3443 60.163 15.8853 59.87C14.0736 59.5053 11.4846 55.3557 10.4562 53.5919C10.2051 53.1614 10.3546 52.6173 10.7791 52.3661C11.2037 52.115 11.7537 52.2585 12.0049 52.689C13.6013 55.4275 15.5804 57.9627 16.2381 58.1122C17.8585 58.435 21.8227 59.5292 21.9901 59.5771C22.02 59.583 22.0559 59.595 22.0858 59.6069C22.295 59.6907 27.1083 61.6518 28.328 65.0958L33.5299 69.933C34.7318 68.3425 37.53 65.0958 40.4837 64.9165C43.0488 64.755 46.3135 65.9509 48.7051 66.8238C49.59 67.1467 50.4271 67.4516 50.7739 67.5055L50.8756 67.5234C53.2912 67.9001 56.6156 67.8283 57.5902 62.8536C58.8697 56.3602 66.1165 26.2909 66.1883 25.986C66.8819 23.4508 67.2765 19.5284 66.0149 18.6674C63.6651 17.065 59.7308 14.1173 59.6949 14.0874C59.3003 13.7884 59.2166 13.2264 59.5155 12.8317C59.8145 12.4371 60.3765 12.3534 60.7711 12.6524C60.813 12.6823 64.7055 15.6061 67.0254 17.1846C69.7758 19.0621 68.2571 25.2146 67.9223 26.4284C67.8565 26.7035 60.6157 56.7369 59.3481 63.1945C58.6964 66.501 56.6515 70.238 50.5945 69.2932L50.4929 69.2753C49.9727 69.1976 49.1834 68.9046 48.0833 68.504C45.9726 67.7327 42.7738 66.5667 40.5914 66.7043C38.1459 66.8597 35.3057 70.4173 34.4149 71.7746C34.2714 71.9958 34.0322 72.1393 33.7751 72.1752C33.7452 72.1872 33.7093 72.1872 33.6734 72.1872Z" fill="#231F20"/>
<path d="M36.1847 49.682C26.6001 49.682 18.8032 41.8851 18.8032 32.3005C18.8032 22.7158 26.6001 14.9189 36.1847 14.9189C45.7694 14.9189 53.5663 22.7158 53.5663 32.3005C53.5663 41.8851 45.7694 49.682 36.1847 49.682ZM36.1847 16.7127C27.5926 16.7127 20.597 23.7024 20.597 32.3005C20.597 40.8926 27.5867 47.8882 36.1847 47.8882C44.7768 47.8882 51.7725 40.8985 51.7725 32.3005C51.7725 23.7084 44.7768 16.7127 36.1847 16.7127Z" fill="#231F20"/>
<path d="M35.8977 40.1682C35.3177 40.1682 34.6959 40.1143 34.0203 40.0007C29.9843 39.3131 28.6569 35.0619 28.5134 32.9094C28.4835 32.4131 28.8542 31.9886 29.3505 31.9587C29.8468 31.9288 30.2713 32.2995 30.3012 32.7958C30.3131 32.9931 30.6779 37.615 34.3192 38.2369C38.0981 38.8826 39.7244 37.2204 40.8246 35.5044C41.0936 35.0858 41.6497 34.9663 42.0623 35.2293C42.4808 35.4984 42.6004 36.0485 42.3373 36.467C41.279 38.1173 39.5032 40.1682 35.8977 40.1682Z" fill="#231F20"/>
<path d="M47.4137 31.7803C46.9294 31.7803 46.5288 31.3916 46.5168 30.9013C46.5168 30.7937 46.4152 28.1688 44.4361 27.7503C42.3912 27.3198 41.1894 29.3467 41.1355 29.4364C40.8844 29.861 40.3343 30.0104 39.9098 29.7593C39.4853 29.5142 39.3358 28.9701 39.581 28.5396C39.6587 28.408 41.4823 25.2929 44.8008 25.9984C48.179 26.7099 48.2986 30.698 48.3046 30.8655C48.3166 31.3617 47.9219 31.7683 47.4257 31.7803C47.4257 31.7803 47.4197 31.7803 47.4137 31.7803Z" fill="#231F20"/>
<path d="M33.2851 28.8447C32.8008 28.8447 32.4002 28.4561 32.3882 27.9658C32.3882 27.8582 32.2866 25.2333 30.3075 24.8148C28.2686 24.3902 27.0608 26.4112 27.007 26.5009C26.7558 26.9254 26.2117 27.0749 25.7812 26.8238C25.3507 26.5726 25.2072 26.0285 25.4524 25.604C25.5301 25.4725 27.3538 22.3573 30.6722 23.0629C34.0505 23.7744 34.1701 27.7625 34.176 27.9299C34.188 28.4262 33.7934 28.8328 33.2971 28.8447C33.2971 28.8447 33.2911 28.8447 33.2851 28.8447Z" fill="#231F20"/>
<path d="M67.4803 24.8144C67.3667 24.8144 67.2531 24.7845 67.1514 24.7127L60.8793 20.5692C60.6042 20.3898 60.5265 20.0191 60.7119 19.744C60.8912 19.469 61.2679 19.3913 61.537 19.5766L67.8092 23.7202C68.0842 23.8996 68.1619 24.2703 67.9766 24.5453C67.8689 24.7187 67.6776 24.8144 67.4803 24.8144Z" fill="#231F20"/>
<path d="M66.3445 29.7953C66.2249 29.7953 66.1053 29.7594 65.9977 29.6876L59.6956 25.2152C59.4266 25.0239 59.3608 24.6532 59.5521 24.3841C59.7435 24.115 60.1141 24.0493 60.3832 24.2406L66.6853 28.713C66.9544 28.9044 67.0201 29.2751 66.8288 29.5441C66.7152 29.7056 66.5298 29.7953 66.3445 29.7953Z" fill="#231F20"/>
<path d="M65.1423 34.8052C65.0107 34.8052 64.8792 34.7633 64.7656 34.6736L58.7445 29.7707C58.4874 29.5614 58.4515 29.1847 58.6608 28.9276C58.8701 28.6705 59.2468 28.6346 59.5039 28.8439L65.5249 33.7468C65.782 33.9561 65.8179 34.3328 65.6086 34.5899C65.489 34.7334 65.3157 34.8052 65.1423 34.8052Z" fill="#231F20"/>
<path d="M64.1553 38.9485C64.0298 38.9485 63.9042 38.9066 63.7966 38.8289L57.8413 34.3146C57.5782 34.1173 57.5244 33.7406 57.7277 33.4775C57.925 33.2144 58.3017 33.1606 58.5648 33.3639L64.5201 37.8782C64.7832 38.0755 64.837 38.4522 64.6337 38.7153C64.5141 38.8648 64.3347 38.9485 64.1553 38.9485Z" fill="#231F20"/>
<path d="M62.9538 44.0137C62.8103 44.0137 62.6668 43.9599 62.5532 43.8582L56.8909 38.7281C56.6457 38.5068 56.6278 38.1302 56.849 37.885C57.0702 37.6399 57.4469 37.6219 57.6921 37.8432L63.3544 42.9733C63.5995 43.1945 63.6175 43.5712 63.3962 43.8164C63.2767 43.9479 63.1152 44.0137 62.9538 44.0137Z" fill="#231F20"/>
<path d="M61.4773 49.3823C61.3398 49.3823 61.2023 49.3345 61.0887 49.2388L55.6954 44.6289C55.4443 44.4136 55.4144 44.0369 55.6297 43.7858C55.8449 43.5347 56.2216 43.5048 56.4727 43.72L61.866 48.33C62.1171 48.5452 62.147 48.9219 61.9317 49.173C61.8122 49.3106 61.6447 49.3823 61.4773 49.3823Z" fill="#231F20"/>
<path d="M60.5203 54.4239C60.3828 54.4239 60.2452 54.3761 60.1316 54.2804L54.6666 49.5927C54.4155 49.3775 54.3856 49.0008 54.6009 48.7497C54.8161 48.4985 55.1928 48.4686 55.4439 48.6839L60.9089 53.3716C61.16 53.5868 61.1899 53.9635 60.9747 54.2146C60.8551 54.3581 60.6877 54.4239 60.5203 54.4239Z" fill="#231F20"/>
<path d="M59.5158 58.8061C59.3783 58.8061 59.2407 58.7583 59.1271 58.6626L53.7399 54.0527C53.4888 53.8374 53.4589 53.4607 53.6741 53.2096C53.8894 52.9585 54.266 52.9286 54.5172 53.1438L59.9044 57.7538C60.1556 57.969 60.1854 58.3457 59.9702 58.5969C59.8506 58.7344 59.6832 58.8061 59.5158 58.8061Z" fill="#231F20"/>
<path d="M58.3559 64.1689C58.1885 64.1689 58.0151 64.0972 57.9015 63.9597L52.7893 57.9326C52.5741 57.6815 52.6039 57.3048 52.8611 57.0896C53.1122 56.8743 53.4888 56.9102 53.7041 57.1613L58.8163 63.1884C59.0316 63.4395 59.0017 63.8162 58.7446 64.0314C58.6309 64.1211 58.4935 64.1689 58.3559 64.1689Z" fill="#231F20"/>
<path d="M55.2761 68.5577C55.0549 68.5577 54.8456 68.4322 54.7379 68.2229L51.0249 60.6772C50.8814 60.3782 51.0009 60.0254 51.2999 59.876C51.5929 59.7325 51.9517 59.852 52.1011 60.151L55.8142 67.6967C55.9577 67.9957 55.8381 68.3485 55.5392 68.4979C55.4555 68.5338 55.3658 68.5577 55.2761 68.5577Z" fill="#231F20"/>
<path d="M49.4288 68.6359C49.1477 68.6359 48.8966 68.4386 48.8428 68.1516L47.4078 60.8032C47.3421 60.4803 47.5573 60.1634 47.8802 60.1036C48.2031 60.0379 48.5199 60.2531 48.5797 60.576L50.0148 67.9244C50.0805 68.2473 49.8653 68.5642 49.5424 68.624C49.5065 68.6359 49.4706 68.6359 49.4288 68.6359Z" fill="#231F20"/>
<path d="M44.6513 67.0151C44.3524 67.0151 44.0953 66.7879 44.0594 66.483L43.3 59.8042C43.2642 59.4753 43.4973 59.1824 43.8262 59.1405C44.167 59.0986 44.4481 59.3378 44.4899 59.6667L45.2492 66.3454C45.2851 66.6743 45.0519 66.9673 44.7231 67.0091C44.6932 67.0151 44.6693 67.0151 44.6513 67.0151Z" fill="#231F20"/>
<path d="M40.5438 66.4116C40.3106 66.4116 40.0953 66.2801 39.9937 66.0529L36.8247 58.7463C36.6932 58.4414 36.8307 58.0886 37.1356 57.9571C37.4406 57.8255 37.7933 57.963 37.9249 58.268L41.0939 65.5745C41.2254 65.8795 41.0879 66.2323 40.783 66.3638C40.7052 66.3997 40.6215 66.4116 40.5438 66.4116Z" fill="#231F20"/>
<path d="M37.8528 67.4751C37.6914 67.4751 37.524 67.4093 37.4044 67.2778L32.4118 61.6992C32.1905 61.454 32.2145 61.0773 32.4596 60.8561C32.7048 60.6349 33.0814 60.6588 33.3027 60.9039L38.2953 66.4825C38.5165 66.7277 38.4926 67.1044 38.2475 67.3256C38.1339 67.4213 37.9963 67.4751 37.8528 67.4751Z" fill="#231F20"/>
<path d="M35.3542 69.73C35.1987 69.73 35.0433 69.6702 34.9237 69.5506L30.0088 64.5042C29.7816 64.265 29.7816 63.8883 30.0207 63.6611C30.2599 63.4339 30.6366 63.4339 30.8638 63.6731L35.7787 68.7195C36.0059 68.9587 36.0059 69.3354 35.7667 69.5626C35.6591 69.6762 35.5096 69.73 35.3542 69.73Z" fill="#231F20"/>
<path d="M23.862 62.143C23.569 62.143 23.3178 61.9277 23.27 61.6347L22.2296 54.7407C22.1818 54.4119 22.4031 54.1069 22.7319 54.0591C23.0667 54.0113 23.3657 54.2385 23.4135 54.5614L24.4539 61.4554C24.5018 61.7842 24.2805 62.0892 23.9517 62.137C23.9218 62.143 23.8919 62.143 23.862 62.143Z" fill="#231F20"/>
<path d="M20.9976 60.8389C20.7226 60.8389 20.4715 60.6476 20.4117 60.3666L19.1142 54.3575C19.0425 54.0346 19.2517 53.7177 19.5746 53.6459C19.8975 53.5742 20.2144 53.7835 20.2861 54.1063L21.5836 60.1154C21.6554 60.4383 21.4461 60.7552 21.1232 60.827C21.0814 60.8329 21.0395 60.8389 20.9976 60.8389Z" fill="#231F20"/>
<path d="M17.8645 60.0141C17.6134 60.0141 17.3802 59.8527 17.2965 59.6016L15.5027 54.0589C15.4011 53.742 15.5745 53.4071 15.8854 53.3055C16.2023 53.2038 16.5372 53.3772 16.6388 53.6881L18.4326 59.2309C18.5342 59.5478 18.3608 59.8826 18.0499 59.9842C17.9841 60.0082 17.9243 60.0141 17.8645 60.0141Z" fill="#231F20"/>
</svg>
