<svg width="169" height="46" viewBox="0 0 169 46" fill="none" xmlns="http://www.w3.org/2000/svg">
<path d="M50.2453 0.0650854V37H0.172156V0.0650854H10.4612V28.716H20.117V0.0650854H30.406V28.716H39.9563V0.0650854H50.2453ZM83.6257 29.8241H68.0075L65.1055 37H54.4471L70.7512 0.0650854H81.0402L97.3971 37H86.5277L83.6257 29.8241ZM80.5654 22.1205L75.8166 10.3013L71.0678 22.1205H80.5654ZM128.645 8.34906H111.919V37H101.63V0.0650854H128.698L128.645 8.34906ZM162.392 0.0650854V37H151.945V8.138H145.085V0.0650854H162.392Z" fill="#FFD966"/>
<path d="M57.6204 6.92739H59.0861V5.46172H57.6204V6.92739ZM57.6204 43.8623V45.328H59.0861V43.8623H57.6204ZM8.86636 43.8623H7.40069V45.328H8.86636V43.8623ZM8.86636 6.92739V5.46172H7.40069V6.92739H8.86636ZM17.3614 6.92739H18.8271V5.46172H17.3614V6.92739ZM17.3614 36.8974H15.8957V38.3631H17.3614V36.8974ZM29.0223 36.8974V38.3631H30.4879V36.8974H29.0223ZM29.0223 6.92739V5.46172H27.5566V6.92739H29.0223ZM37.5173 6.92739H38.983V5.46172H37.5173V6.92739ZM37.5173 36.8974H36.0516V38.3631H37.5173V36.8974ZM49.1254 36.8974V38.3631H50.5911V36.8974H49.1254ZM49.1254 6.92739V5.46172H47.6597V6.92739H49.1254ZM56.1548 6.92739V43.8623H59.0861V6.92739H56.1548ZM57.6204 42.3966H8.86636V45.328H57.6204V42.3966ZM10.332 43.8623V6.92739H7.40069V43.8623H10.332ZM8.86636 8.39306H17.3614V5.46172H8.86636V8.39306ZM15.8957 6.92739V36.8974H18.8271V6.92739H15.8957ZM17.3614 38.3631H29.0223V35.4318H17.3614V38.3631ZM30.4879 36.8974V6.92739H27.5566V36.8974H30.4879ZM29.0223 8.39306H37.5173V5.46172H29.0223V8.39306ZM36.0516 6.92739V36.8974H38.983V6.92739H36.0516ZM37.5173 38.3631H49.1254V35.4318H37.5173V38.3631ZM50.5911 36.8974V6.92739H47.6597V36.8974H50.5911ZM49.1254 8.39306H57.6204V5.46172H49.1254V8.39306ZM91.7935 35.9477L93.148 35.3878L92.7736 34.482H91.7935V35.9477ZM74.6451 35.9477V34.482H73.665L73.2906 35.3878L74.6451 35.9477ZM71.3737 43.8623V45.328H72.3539L72.7283 44.4222L71.3737 43.8623ZM62.6149 43.8623L61.2762 43.2656L60.357 45.328H62.6149V43.8623ZM79.0773 6.92739V5.46172H78.1259L77.7386 6.33071L79.0773 6.92739ZM87.5196 6.92739L88.8576 6.32911L88.4697 5.46172H87.5196V6.92739ZM104.035 43.8623V45.328H106.296L105.373 43.264L104.035 43.8623ZM95.0649 43.8623L93.7103 44.4222L94.0847 45.328H95.0649V43.8623ZM89.1025 29.4577V30.9234H91.296L90.4566 28.8968L89.1025 29.4577ZM83.2457 15.3169L84.5998 14.756L83.2457 11.4866L81.8916 14.756L83.2457 15.3169ZM77.3889 29.4577L76.0347 28.8968L75.1954 30.9234H77.3889V29.4577ZM91.7935 34.482H74.6451V37.4134H91.7935V34.482ZM73.2906 35.3878L70.0192 43.3024L72.7283 44.4222L75.9997 36.5075L73.2906 35.3878ZM71.3737 42.3966H62.6149V45.328H71.3737V42.3966ZM63.9536 44.459L80.416 7.52407L77.7386 6.33071L61.2762 43.2656L63.9536 44.459ZM79.0773 8.39306H87.5196V5.46172H79.0773V8.39306ZM86.1816 7.52567L102.697 44.4606L105.373 43.264L88.8576 6.32911L86.1816 7.52567ZM104.035 42.3966H95.0649V45.328H104.035V42.3966ZM96.4194 43.3024L93.148 35.3878L90.439 36.5075L93.7103 44.4222L96.4194 43.3024ZM90.4566 28.8968L84.5998 14.756L81.8916 15.8777L87.7484 30.0185L90.4566 28.8968ZM81.8916 14.756L76.0347 28.8968L78.743 30.0185L84.5998 15.8777L81.8916 14.756ZM77.3889 30.9234H89.1025V27.992H77.3889V30.9234ZM134.945 13.8923V15.3579H136.4L136.411 13.9034L134.945 13.8923ZM117.375 13.8923V12.4266H115.907L115.909 13.8948L117.375 13.8923ZM117.428 43.8623V45.328H118.896L118.893 43.8597L117.428 43.8623ZM108.933 43.8623H107.467V45.328H108.933V43.8623ZM108.933 6.92739V5.46172H107.467V6.92739H108.933ZM134.998 6.92739L136.464 6.93849L136.475 5.46172H134.998V6.92739ZM134.945 12.4266H117.375V15.3579H134.945V12.4266ZM115.909 13.8948L115.962 43.8649L118.893 43.8597L118.841 13.8897L115.909 13.8948ZM117.428 42.3966H108.933V45.328H117.428V42.3966ZM110.398 43.8623V6.92739H107.467V43.8623H110.398ZM108.933 8.39306H134.998V5.46172H108.933V8.39306ZM133.533 6.91629L133.48 13.8812L136.411 13.9034L136.464 6.93849L133.533 6.91629ZM166.867 6.92739H168.332V5.46172H166.867V6.92739ZM166.867 43.8623V45.328H168.332V43.8623H166.867ZM158.319 43.8623H156.853V45.328H158.319V43.8623ZM158.319 13.7867H159.784V12.3211H158.319V13.7867ZM150.932 13.7867H149.466V15.2524H150.932V13.7867ZM150.932 6.92739V5.46172H149.466V6.92739H150.932ZM165.401 6.92739V43.8623H168.332V6.92739H165.401ZM166.867 42.3966H158.319V45.328H166.867V42.3966ZM159.784 43.8623V13.7867H156.853V43.8623H159.784ZM158.319 12.3211H150.932V15.2524H158.319V12.3211ZM152.397 13.7867V6.92739H149.466V13.7867H152.397ZM150.932 8.39306H166.867V5.46172H150.932V8.39306Z" fill="#676767"/>
</svg>
