<svg width="182" height="47" viewBox="0 0 182 47" fill="none" xmlns="http://www.w3.org/2000/svg">
<path d="M50.5124 0.202781V37.1377H0.439246V0.202781H10.7283V28.8537H20.3841V0.202781H30.6731V28.8537H40.2234V0.202781H50.5124ZM83.8928 29.9618H68.2746L65.3726 37.1377H54.7142L71.0183 0.202781H81.3073L97.6642 37.1377H86.7948L83.8928 29.9618ZM80.8325 22.2582L76.0837 10.439L71.3349 22.2582H80.8325ZM128.912 8.48675H112.186V37.1377H101.897V0.202781H128.965L128.912 8.48675ZM165.772 14.9767C168.832 15.6099 171.172 16.8763 172.79 18.7758C174.443 20.6401 175.27 22.909 175.27 25.5823C175.27 27.7633 174.672 29.7859 173.476 31.6502C172.315 33.5146 170.521 35.0271 168.094 36.1879C165.702 37.3136 162.729 37.8764 159.177 37.8764C156.573 37.8764 153.988 37.5598 151.42 36.9266C148.888 36.2935 146.689 35.3965 144.825 34.2357L148.624 26.3738C150.066 27.3587 151.684 28.115 153.478 28.6427C155.307 29.1703 157.101 29.4341 158.86 29.4341C160.654 29.4341 162.079 29.1 163.134 28.4316C164.189 27.7633 164.717 26.8135 164.717 25.5823C164.717 23.1904 162.835 21.9944 159.071 21.9944H154.692V15.3989L161.287 8.2757H146.724V0.202781H173.423V6.74554L165.772 14.9767Z" fill="#FFD966"/>
<path d="M57.888 7.53091H59.3537V6.06523H57.888V7.53091ZM57.888 44.4658V45.9315H59.3537V44.4658H57.888ZM9.13394 44.4658H7.66827V45.9315H9.13394V44.4658ZM9.13394 7.53091V6.06523H7.66827V7.53091H9.13394ZM17.629 7.53091H19.0946V6.06523H17.629V7.53091ZM17.629 37.5009H16.1633V38.9666H17.629V37.5009ZM29.2898 37.5009V38.9666H30.7555V37.5009H29.2898ZM29.2898 7.53091V6.06523H27.8242V7.53091H29.2898ZM37.7849 7.53091H39.2506V6.06523H37.7849V7.53091ZM37.7849 37.5009H36.3192V38.9666H37.7849V37.5009ZM49.393 37.5009V38.9666H50.8587V37.5009H49.393ZM49.393 7.53091V6.06523H47.9273V7.53091H49.393ZM56.4224 7.53091V44.4658H59.3537V7.53091H56.4224ZM57.888 43.0001H9.13394V45.9315H57.888V43.0001ZM10.5996 44.4658V7.53091H7.66827V44.4658H10.5996ZM9.13394 8.99658H17.629V6.06523H9.13394V8.99658ZM16.1633 7.53091V37.5009H19.0946V7.53091H16.1633ZM17.629 38.9666H29.2898V36.0353H17.629V38.9666ZM30.7555 37.5009V7.53091H27.8242V37.5009H30.7555ZM29.2898 8.99658H37.7849V6.06523H29.2898V8.99658ZM36.3192 7.53091V37.5009H39.2506V7.53091H36.3192ZM37.7849 38.9666H49.393V36.0353H37.7849V38.9666ZM50.8587 37.5009V7.53091H47.9273V37.5009H50.8587ZM49.393 8.99658H57.888V6.06523H49.393V8.99658ZM92.0611 36.5512L93.4156 35.9913L93.0412 35.0855H92.0611V36.5512ZM74.9127 36.5512V35.0855H73.9326L73.5582 35.9913L74.9127 36.5512ZM71.6413 44.4658V45.9315H72.6215L72.9959 45.0257L71.6413 44.4658ZM62.8825 44.4658L61.5438 43.8691L60.6245 45.9315H62.8825V44.4658ZM79.3449 7.53091V6.06523H78.3935L78.0062 6.93422L79.3449 7.53091ZM87.7872 7.53091L89.1252 6.93263L88.7373 6.06523H87.7872V7.53091ZM104.302 44.4658V45.9315H106.563L105.64 43.8675L104.302 44.4658ZM95.3324 44.4658L93.9779 45.0257L94.3523 45.9315H95.3324V44.4658ZM89.3701 30.0612V31.5269H91.5636L90.7242 29.5004L89.3701 30.0612ZM83.5133 15.9204L84.8674 15.3596L83.5133 12.0902L82.1591 15.3596L83.5133 15.9204ZM77.6564 30.0612L76.3023 29.5004L75.463 31.5269H77.6564V30.0612ZM92.0611 35.0855H74.9127V38.0169H92.0611V35.0855ZM73.5582 35.9913L70.2868 43.9059L72.9959 45.0257L76.2672 37.1111L73.5582 35.9913ZM71.6413 43.0001H62.8825V45.9315H71.6413V43.0001ZM64.2212 45.0625L80.6836 8.12759L78.0062 6.93422L61.5438 43.8691L64.2212 45.0625ZM79.3449 8.99658H87.7872V6.06523H79.3449V8.99658ZM86.4492 8.12918L102.964 45.0641L105.64 43.8675L89.1252 6.93263L86.4492 8.12918ZM104.302 43.0001H95.3324V45.9315H104.302V43.0001ZM96.687 43.9059L93.4156 35.9913L90.7065 37.1111L93.9779 45.0257L96.687 43.9059ZM90.7242 29.5004L84.8674 15.3596L82.1591 16.4813L88.016 30.6221L90.7242 29.5004ZM82.1591 15.3596L76.3023 29.5004L79.0106 30.6221L84.8674 16.4813L82.1591 15.3596ZM77.6564 31.5269H89.3701V28.5955H77.6564V31.5269ZM135.213 14.4958V15.9614H136.668L136.679 14.5069L135.213 14.4958ZM117.643 14.4958V13.0301H116.174L116.177 14.4984L117.643 14.4958ZM117.695 44.4658V45.9315H119.164L119.161 44.4632L117.695 44.4658ZM109.2 44.4658H107.735V45.9315H109.2V44.4658ZM109.2 7.53091V6.06523H107.735V7.53091H109.2ZM135.266 7.53091L136.731 7.54201L136.743 6.06523H135.266V7.53091ZM135.213 13.0301H117.643V15.9614H135.213V13.0301ZM116.177 14.4984L116.23 44.4684L119.161 44.4632L119.108 14.4932L116.177 14.4984ZM117.695 43.0001H109.2V45.9315H117.695V43.0001ZM110.666 44.4658V7.53091H107.735V44.4658H110.666ZM109.2 8.99658H135.266V6.06523H109.2V8.99658ZM133.8 7.5198L133.747 14.4847L136.679 14.5069L136.731 7.54201L133.8 7.5198ZM170.142 22.5687L169.04 21.6018L167.295 23.5896L169.906 24.0153L170.142 22.5687ZM177.581 26.2094L176.496 27.1944L176.505 27.2044L177.581 26.2094ZM178.478 39.1366L179.72 39.9157L179.727 39.9048L178.478 39.1366ZM173.308 43.4633L172.684 42.1367L172.677 42.1404L173.308 43.4633ZM157.162 44.0965L156.764 45.5072L156.776 45.5105L156.788 45.5136L157.162 44.0965ZM150.777 41.1417L149.471 40.4778L148.902 41.5974L149.921 42.3311L150.777 41.1417ZM154.101 34.5989L154.981 33.4264L153.585 32.3795L152.795 33.935L154.101 34.5989ZM158.956 37.0788L158.5 38.472L158.516 38.4771L158.532 38.482L158.956 37.0788ZM169.72 36.7095L170.525 37.9344L170.537 37.9264L170.548 37.9183L169.72 36.7095ZM160.75 28.6366H159.284V30.1022H160.75V28.6366ZM160.75 22.9908L159.651 22.0204L159.284 22.4361V22.9908H160.75ZM168.348 14.3902L169.446 15.3606L171.598 12.9246H168.348V14.3902ZM152.624 14.3902H151.158V15.8559H152.624V14.3902ZM152.624 7.53091V6.06523H151.158V7.53091H152.624ZM178.478 7.53091H179.944V6.06523H178.478V7.53091ZM178.478 13.0711L179.58 14.038L179.944 13.6232V13.0711H178.478ZM169.906 24.0153C172.907 24.5046 175.051 25.6018 176.496 27.1943L178.667 25.2245C176.665 23.0181 173.849 21.688 170.378 21.1221L169.906 24.0153ZM176.505 27.2044C177.954 28.7713 178.701 30.7263 178.701 33.1743H181.633C181.633 30.0644 180.656 27.3762 178.658 25.2144L176.505 27.2044ZM178.701 33.1743C178.701 35.0485 178.214 36.7701 177.23 38.3685L179.727 39.9048C180.994 37.8449 181.633 35.5915 181.633 33.1743H178.701ZM177.237 38.3576C176.29 39.8675 174.806 41.1403 172.684 42.1367L173.931 44.7899C176.453 43.6054 178.416 41.9937 179.72 39.9156L177.237 38.3576ZM172.677 42.1404C170.64 43.1119 168.055 43.6333 164.865 43.6333V46.5647C168.359 46.5647 171.403 45.9957 173.938 44.7862L172.677 42.1404ZM164.865 43.6333C162.389 43.6333 159.947 43.3157 157.536 42.6793L156.788 45.5136C159.442 46.214 162.135 46.5647 164.865 46.5647V43.6333ZM157.559 42.6857C155.195 42.0197 153.229 41.101 151.634 39.9522L149.921 42.3311C151.843 43.715 154.134 44.7662 156.764 45.5072L157.559 42.6857ZM152.084 41.8056L155.408 35.2628L152.795 33.935L149.471 40.4778L152.084 41.8056ZM153.222 35.7715C154.769 36.9316 156.533 37.8288 158.5 38.472L159.411 35.6857C157.72 35.1329 156.248 34.3768 154.981 33.4264L153.222 35.7715ZM158.532 38.482C160.533 39.086 162.575 39.3887 164.654 39.3887V36.4574C162.864 36.4574 161.107 36.1973 159.379 35.6757L158.532 38.482ZM164.654 39.3887C166.962 39.3887 168.968 38.9569 170.525 37.9344L168.915 35.4846C168.008 36.0802 166.638 36.4574 164.654 36.4574V39.3887ZM170.548 37.9183C172.184 36.7964 173.032 35.1625 173.032 33.1743H170.101C170.101 34.2113 169.717 34.9341 168.891 35.5007L170.548 37.9183ZM173.032 33.1743C173.032 31.225 172.253 29.6029 170.643 28.5458C169.14 27.5592 167.072 27.1709 164.654 27.1709V30.1022C166.845 30.1022 168.233 30.4702 169.034 30.9962C169.728 31.4517 170.101 32.0984 170.101 33.1743H173.032ZM164.654 27.1709H160.75V30.1022H164.654V27.1709ZM162.215 28.6366V22.9908H159.284V28.6366H162.215ZM161.848 23.9612L169.446 15.3606L167.249 13.4199L159.651 22.0204L161.848 23.9612ZM168.348 12.9246H152.624V15.8559H168.348V12.9246ZM154.09 14.3902V7.53091H151.158V14.3902H154.09ZM152.624 8.99658H178.478V6.06523H152.624V8.99658ZM177.013 7.53091V13.0711H179.944V7.53091H177.013ZM177.377 12.1043L169.04 21.6018L171.243 23.5356L179.58 14.038L177.377 12.1043Z" fill="#676767"/>
</svg>
