<svg width="189" height="46" viewBox="0 0 189 46" fill="none" xmlns="http://www.w3.org/2000/svg">
<path d="M50.7795 0.202781V37.1377H0.706336V0.202781H10.9953V28.8537H20.6512V0.202781H30.9402V28.8537H40.4905V0.202781H50.7795ZM84.1599 29.9618H68.5417L65.6396 37.1377H54.9813L71.2854 0.202781H81.5744L97.9313 37.1377H87.0619L84.1599 29.9618ZM81.0995 22.2582L76.3508 10.439L71.602 22.2582H81.0995ZM129.179 8.48675H112.453V37.1377H102.164V0.202781H129.232L129.179 8.48675ZM181.921 30.0673H176.434V37.1377H166.25V30.0673H146.727V23.2607L163.295 0.202781H174.112L159.074 21.7833H166.567V15.5044H176.434V21.7833H181.921V30.0673Z" fill="#FFD966"/>
<path d="M58.4911 7.06606H59.9567V5.60039H58.4911V7.06606ZM58.4911 44.001V45.4666H59.9567V44.001H58.4911ZM9.73697 44.001H8.2713V45.4666H9.73697V44.001ZM9.73697 7.06606V5.60039H8.2713V7.06606H9.73697ZM18.232 7.06606H19.6977V5.60039H18.232V7.06606ZM18.232 37.0361H16.7663V38.5018H18.232V37.0361ZM29.8929 37.0361V38.5018H31.3585V37.0361H29.8929ZM29.8929 7.06606V5.60039H28.4272V7.06606H29.8929ZM38.3879 7.06606H39.8536V5.60039H38.3879V7.06606ZM38.3879 37.0361H36.9222V38.5018H38.3879V37.0361ZM49.996 37.0361V38.5018H51.4617V37.0361H49.996ZM49.996 7.06606V5.60039H48.5303V7.06606H49.996ZM57.0254 7.06606V44.001H59.9567V7.06606H57.0254ZM58.4911 42.5353H9.73697V45.4666H58.4911V42.5353ZM11.2026 44.001V7.06606H8.2713V44.001H11.2026ZM9.73697 8.53173H18.232V5.60039H9.73697V8.53173ZM16.7663 7.06606V37.0361H19.6977V7.06606H16.7663ZM18.232 38.5018H29.8929V35.5704H18.232V38.5018ZM31.3585 37.0361V7.06606H28.4272V37.0361H31.3585ZM29.8929 8.53173H38.3879V5.60039H29.8929V8.53173ZM36.9222 7.06606V37.0361H39.8536V7.06606H36.9222ZM38.3879 38.5018H49.996V35.5704H38.3879V38.5018ZM51.4617 37.0361V7.06606H48.5303V37.0361H51.4617ZM49.996 8.53173H58.4911V5.60039H49.996V8.53173ZM92.6641 36.0864L94.0186 35.5265L93.6442 34.6207H92.6641V36.0864ZM75.5157 36.0864V34.6207H74.5356L74.1612 35.5265L75.5157 36.0864ZM72.2444 44.001V45.4666H73.2245L73.5989 44.5608L72.2444 44.001ZM63.4855 44.001L62.1468 43.4043L61.2276 45.4666H63.4855V44.001ZM79.9479 7.06606V5.60039H78.9965L78.6092 6.46938L79.9479 7.06606ZM88.3902 7.06606L89.7282 6.46778L89.3403 5.60039H88.3902V7.06606ZM104.905 44.001V45.4666H107.166L106.243 43.4027L104.905 44.001ZM95.9355 44.001L94.5809 44.5608L94.9553 45.4666H95.9355V44.001ZM89.9731 29.5964V31.062H92.1666L91.3272 29.0355L89.9731 29.5964ZM84.1163 15.4556L85.4704 14.8947L84.1163 11.6253L82.7622 14.8947L84.1163 15.4556ZM78.2595 29.5964L76.9053 29.0355L76.066 31.062H78.2595V29.5964ZM92.6641 34.6207H75.5157V37.552H92.6641V34.6207ZM74.1612 35.5265L70.8898 43.4411L73.5989 44.5608L76.8703 36.6462L74.1612 35.5265ZM72.2444 42.5353H63.4855V45.4666H72.2444V42.5353ZM64.8242 44.5977L81.2866 7.66275L78.6092 6.46938L62.1468 43.4043L64.8242 44.5977ZM79.9479 8.53173H88.3902V5.60039H79.9479V8.53173ZM87.0522 7.66434L103.567 44.5993L106.243 43.4027L89.7282 6.46778L87.0522 7.66434ZM104.905 42.5353H95.9355V45.4666H104.905V42.5353ZM97.29 43.4411L94.0186 35.5265L91.3096 36.6462L94.5809 44.5608L97.29 43.4411ZM91.3272 29.0355L85.4704 14.8947L82.7622 16.0164L88.619 30.1572L91.3272 29.0355ZM82.7622 14.8947L76.9053 29.0355L79.6136 30.1572L85.4704 16.0164L82.7622 14.8947ZM78.2595 31.062H89.9731V28.1307H78.2595V31.062ZM135.816 14.0309V15.4966H137.271L137.282 14.042L135.816 14.0309ZM118.246 14.0309V12.5653H116.777L116.78 14.0335L118.246 14.0309ZM118.298 44.001V45.4666H119.767L119.764 43.9984L118.298 44.001ZM109.803 44.001H108.338V45.4666H109.803V44.001ZM109.803 7.06606V5.60039H108.338V7.06606H109.803ZM135.869 7.06606L137.335 7.07716L137.346 5.60039H135.869V7.06606ZM135.816 12.5653H118.246V15.4966H135.816V12.5653ZM116.78 14.0335L116.833 44.0036L119.764 43.9984L119.711 14.0284L116.78 14.0335ZM118.298 42.5353H109.803V45.4666H118.298V42.5353ZM111.269 44.001V7.06606H108.338V44.001H111.269ZM109.803 8.53173H135.869V5.60039H109.803V8.53173ZM134.403 7.05496L134.35 14.0198L137.282 14.042L137.335 7.07716L134.403 7.05496ZM187.313 36.2446V37.7103H188.778V36.2446H187.313ZM181.298 36.2446V34.779H179.832V36.2446H181.298ZM181.298 44.001V45.4666H182.763V44.001H181.298ZM172.961 44.001H171.495V45.4666H172.961V44.001ZM172.961 36.2446H174.427V34.779H172.961V36.2446ZM153.069 36.2446H151.603V37.7103H153.069V36.2446ZM153.069 30.4934L151.892 29.619L151.603 30.0083V30.4934H153.069ZM170.481 7.06606V5.60039H169.744L169.305 6.19175L170.481 7.06606ZM179.451 7.06606L180.636 7.92779L182.328 5.60039H179.451V7.06606ZM163.305 29.2798L162.119 28.418L160.428 30.7454H163.305V29.2798ZM173.225 29.2798V30.7454H174.69V29.2798H173.225ZM173.225 22.3677V20.902H171.759V22.3677H173.225ZM181.298 22.3677H182.763V20.902H181.298V22.3677ZM181.298 29.2798H179.832V30.7454H181.298V29.2798ZM187.313 29.2798H188.778V27.8141H187.313V29.2798ZM187.313 34.779H181.298V37.7103H187.313V34.779ZM179.832 36.2446V44.001H182.763V36.2446H179.832ZM181.298 42.5353H172.961V45.4666H181.298V42.5353ZM174.427 44.001V36.2446H171.495V44.001H174.427ZM172.961 34.779H153.069V37.7103H172.961V34.779ZM154.534 36.2446V30.4934H151.603V36.2446H154.534ZM154.245 31.3677L171.657 7.94037L169.305 6.19175L151.892 29.619L154.245 31.3677ZM170.481 8.53173H179.451V5.60039H170.481V8.53173ZM178.265 6.20433L162.119 28.418L164.491 30.1415L180.636 7.92779L178.265 6.20433ZM163.305 30.7454H173.225V27.8141H163.305V30.7454ZM174.69 29.2798V22.3677H171.759V29.2798H174.69ZM173.225 23.8333H181.298V20.902H173.225V23.8333ZM179.832 22.3677V29.2798H182.763V22.3677H179.832ZM181.298 30.7454H187.313V27.8141H181.298V30.7454ZM185.847 29.2798V36.2446H188.778V29.2798H185.847Z" fill="#676767"/>
</svg>
