<svg width="183" height="47" viewBox="0 0 183 47" fill="none" xmlns="http://www.w3.org/2000/svg">
<path d="M50.9778 1.20278V38.1377H0.904578V1.20278H11.1936V29.8537H20.8494V1.20278H31.1384V29.8537H40.6888V1.20278H50.9778ZM84.3581 30.9618H68.7399L65.8379 38.1377H55.1795L71.4836 1.20278H81.7727L98.1296 38.1377H87.2601L84.3581 30.9618ZM81.2978 23.2582L76.549 11.439L71.8002 23.2582H81.2978ZM129.377 9.48675H112.651V38.1377H102.362V1.20278H129.43L129.377 9.48675ZM175.84 29.8537V38.1377H147.084V31.5949L160.908 18.6677C162.245 17.4014 163.142 16.3285 163.599 15.4491C164.056 14.5345 164.285 13.6199 164.285 12.7054C164.285 11.5094 163.881 10.5772 163.072 9.90887C162.262 9.24052 161.084 8.90635 159.536 8.90635C158.164 8.90635 156.898 9.22293 155.737 9.8561C154.612 10.4541 153.679 11.3335 152.941 12.4943L145.184 8.16765C146.627 5.77568 148.649 3.89375 151.252 2.52189C153.855 1.15002 156.933 0.464083 160.486 0.464083C163.3 0.464083 165.78 0.921372 167.926 1.83595C170.107 2.75053 171.795 4.06963 172.991 5.79326C174.222 7.48172 174.838 9.45158 174.838 11.7028C174.838 13.7079 174.398 15.6074 173.519 17.4014C172.675 19.1602 171.021 21.1652 168.559 23.4165L161.594 29.8537H175.84Z" fill="#FFD966"/>
<path d="M58.6893 8.06606H60.155V6.60039H58.6893V8.06606ZM58.6893 45.001V46.4666H60.155V45.001H58.6893ZM9.93521 45.001H8.46954V46.4666H9.93521V45.001ZM9.93521 8.06606V6.60039H8.46954V8.06606H9.93521ZM18.4302 8.06606H19.8959V6.60039H18.4302V8.06606ZM18.4302 38.0361H16.9646V39.5018H18.4302V38.0361ZM30.0911 38.0361V39.5018H31.5568V38.0361H30.0911ZM30.0911 8.06606V6.60039H28.6254V8.06606H30.0911ZM38.5862 8.06606H40.0518V6.60039H38.5862V8.06606ZM38.5862 38.0361H37.1205V39.5018H38.5862V38.0361ZM50.1943 38.0361V39.5018H51.6599V38.0361H50.1943ZM50.1943 8.06606V6.60039H48.7286V8.06606H50.1943ZM57.2236 8.06606V45.001H60.155V8.06606H57.2236ZM58.6893 43.5353H9.93521V46.4666H58.6893V43.5353ZM11.4009 45.001V8.06606H8.46954V45.001H11.4009ZM9.93521 9.53173H18.4302V6.60039H9.93521V9.53173ZM16.9646 8.06606V38.0361H19.8959V8.06606H16.9646ZM18.4302 39.5018H30.0911V36.5704H18.4302V39.5018ZM31.5568 38.0361V8.06606H28.6254V38.0361H31.5568ZM30.0911 9.53173H38.5862V6.60039H30.0911V9.53173ZM37.1205 8.06606V38.0361H40.0518V8.06606H37.1205ZM38.5862 39.5018H50.1943V36.5704H38.5862V39.5018ZM51.6599 38.0361V8.06606H48.7286V38.0361H51.6599ZM50.1943 9.53173H58.6893V6.60039H50.1943V9.53173ZM92.8623 37.0864L94.2169 36.5265L93.8425 35.6207H92.8623V37.0864ZM75.714 37.0864V35.6207H74.7338L74.3595 36.5265L75.714 37.0864ZM72.4426 45.001V46.4666H73.4227L73.7971 45.5608L72.4426 45.001ZM63.6837 45.001L62.345 44.4043L61.4258 46.4666H63.6837V45.001ZM80.1462 8.06606V6.60039H79.1948L78.8074 7.46938L80.1462 8.06606ZM88.5884 8.06606L89.9264 7.46778L89.5386 6.60039H88.5884V8.06606ZM105.104 45.001V46.4666H107.365L106.442 44.4027L105.104 45.001ZM96.1337 45.001L94.7792 45.5608L95.1536 46.4666H96.1337V45.001ZM90.1714 30.5964V32.062H92.3648L91.5255 30.0355L90.1714 30.5964ZM84.3145 16.4556L85.6687 15.8947L84.3145 12.6253L82.9604 15.8947L84.3145 16.4556ZM78.4577 30.5964L77.1036 30.0355L76.2643 32.062H78.4577V30.5964ZM92.8623 35.6207H75.714V38.552H92.8623V35.6207ZM74.3595 36.5265L71.0881 44.4411L73.7971 45.5608L77.0685 37.6462L74.3595 36.5265ZM72.4426 43.5353H63.6837V46.4666H72.4426V43.5353ZM65.0225 45.5977L81.4849 8.66275L78.8074 7.46938L62.345 44.4043L65.0225 45.5977ZM80.1462 9.53173H88.5884V6.60039H80.1462V9.53173ZM87.2504 8.66434L103.766 45.5993L106.442 44.4027L89.9264 7.46778L87.2504 8.66434ZM105.104 43.5353H96.1337V46.4666H105.104V43.5353ZM97.4882 44.4411L94.2169 36.5265L91.5078 37.6462L94.7792 45.5608L97.4882 44.4411ZM91.5255 30.0355L85.6687 15.8947L82.9604 17.0164L88.8172 31.1572L91.5255 30.0355ZM82.9604 15.8947L77.1036 30.0355L79.8118 31.1572L85.6687 17.0164L82.9604 15.8947ZM78.4577 32.062H90.1714V29.1307H78.4577V32.062ZM136.014 15.0309V16.4966H137.469L137.48 15.042L136.014 15.0309ZM118.444 15.0309V13.5653H116.976L116.978 15.0335L118.444 15.0309ZM118.497 45.001V46.4666H119.965L119.962 44.9984L118.497 45.001ZM110.002 45.001H108.536V46.4666H110.002V45.001ZM110.002 8.06606V6.60039H108.536V8.06606H110.002ZM136.067 8.06606L137.533 8.07716L137.544 6.60039H136.067V8.06606ZM136.014 13.5653H118.444V16.4966H136.014V13.5653ZM116.978 15.0335L117.031 45.0036L119.962 44.9984L119.91 15.0284L116.978 15.0335ZM118.497 43.5353H110.002V46.4666H118.497V43.5353ZM111.467 45.001V8.06606H108.536V45.001H111.467ZM110.002 9.53173H136.067V6.60039H110.002V9.53173ZM134.601 8.05496L134.549 15.0198L137.48 15.042L137.533 8.07716L134.601 8.05496ZM181.285 38.0361H182.75V36.5704H181.285V38.0361ZM181.285 45.001V46.4666H182.75V45.001H181.285ZM153.373 45.001H151.907V46.4666H153.373V45.001ZM153.373 39.4607L152.366 38.3952L151.907 38.829V39.4607H153.373ZM167.619 26.0059L168.625 27.0715L168.63 27.0666L167.619 26.0059ZM170.679 22.3124L171.981 22.9858L171.986 22.9768L171.99 22.9679L170.679 22.3124ZM169.94 15.8224L169.01 16.955L169.032 16.9729L169.055 16.9901L169.94 15.8224ZM161.182 15.5586L161.794 16.8904L161.808 16.8836L161.823 16.8766L161.182 15.5586ZM157.91 18.3023L157.117 19.5345L158.291 20.2909L159.103 19.1542L157.91 18.3023ZM151.684 14.2922L150.468 13.4746L149.634 14.7151L150.89 15.5244L151.684 14.2922ZM157.646 9.27964L158.272 10.605L158.28 10.6014L158.287 10.5978L157.646 9.27964ZM173.528 8.80476L172.929 10.1422L172.943 10.1484L172.957 10.1543L173.528 8.80476ZM178.33 12.6038L177.118 13.4286L177.129 13.4435L177.139 13.4581L178.33 12.6038ZM178.805 24.0008L180.126 24.6351L178.805 24.0008ZM173.898 30.016L172.901 28.9413L172.892 28.9502L173.898 30.016ZM165.403 38.0361L164.397 36.9704L161.715 39.5018H165.403V38.0361ZM179.819 38.0361V45.001H182.75V38.0361H179.819ZM181.285 43.5353H153.373V46.4666H181.285V43.5353ZM154.838 45.001V39.4607H151.907V45.001H154.838ZM154.379 40.5263L168.625 27.0714L166.612 24.9403L152.366 38.3952L154.379 40.5263ZM168.63 27.0666C170.181 25.5884 171.341 24.2233 171.981 22.9858L169.377 21.639C168.962 22.4416 168.082 23.5389 166.607 24.9451L168.63 27.0666ZM171.99 22.9679C172.604 21.741 172.936 20.4801 172.936 19.1993H170.005C170.005 19.9587 169.81 20.7733 169.368 21.6569L171.99 22.9679ZM172.936 19.1993C172.936 17.3435 172.271 15.7508 170.826 14.6547L169.055 16.9901C169.65 17.4418 170.005 18.1003 170.005 19.1993H172.936ZM170.871 14.6898C169.518 13.5786 167.667 13.1431 165.561 13.1431V16.0745C167.325 16.0745 168.393 16.4481 169.01 16.955L170.871 14.6898ZM165.561 13.1431C163.747 13.1431 162.064 13.4993 160.54 14.2406L161.823 16.8766C162.902 16.3515 164.139 16.0745 165.561 16.0745V13.1431ZM160.57 14.2268C159.023 14.9374 157.737 16.0235 156.718 17.4504L159.103 19.1542C159.843 18.1187 160.737 17.3757 161.794 16.8904L160.57 14.2268ZM158.704 17.0701L152.478 13.06L150.89 15.5244L157.117 19.5345L158.704 17.0701ZM152.9 15.1098C154.183 13.2017 155.958 11.6978 158.272 10.605L157.021 7.95431C154.269 9.25345 152.07 11.0913 150.468 13.4746L152.9 15.1098ZM158.287 10.5978C160.59 9.47824 163.267 8.89857 166.353 8.89857V5.96722C162.895 5.96722 159.768 6.61871 157.006 7.96146L158.287 10.5978ZM166.353 8.89857C168.935 8.89857 171.115 9.32907 172.929 10.1422L174.128 7.46732C171.861 6.45129 169.257 5.96722 166.353 5.96722V8.89857ZM172.957 10.1543C174.807 10.9382 176.171 12.0367 177.118 13.4286L179.541 11.7789C178.238 9.86427 176.401 8.4301 174.1 7.45524L172.957 10.1543ZM177.139 13.4581C178.101 14.7993 178.606 16.4093 178.606 18.3551H181.537C181.537 15.8687 180.88 13.6445 179.521 11.7494L177.139 13.4581ZM178.606 18.3551C178.606 20.1468 178.23 21.8113 177.484 23.3666L180.126 24.6351C181.068 22.6728 181.537 20.5734 181.537 18.3551H178.606ZM177.484 23.3666C176.756 24.883 175.274 26.7403 172.901 28.9414L174.895 31.0905C177.376 28.789 179.166 26.6363 180.126 24.6351L177.484 23.3666ZM172.892 28.9502L164.397 36.9704L166.409 39.1019L174.904 31.0817L172.892 28.9502ZM165.403 39.5018H181.285V36.5704H165.403V39.5018Z" fill="#676767"/>
</svg>
